<svg width="128" height="128" viewBox="0 0 128 128" fill="none" xmlns="http://www.w3.org/2000/svg">
    <rect width="128" height="128" rx="32" fill="#FF4C00" />
    <path d="M80.16 93.3067H84.5866C86.8266 93.3067 88.6666 91.6 88.9333 89.4134L93.3333 45.4667H80V34.6667H74.7466V45.4667H61.4933L62.2933 51.7067C66.8533 52.96 71.12 55.2267 73.68 57.7334C77.52 61.52 80.16 65.44 80.16 71.84V93.3067V93.3067ZM34.6666 90.64V88H74.7466V90.64C74.7466 92.1067 73.5466 93.3067 72.0533 93.3067H37.36C35.8666 93.3067 34.6666 92.1067 34.6666 90.64V90.64ZM74.7466 71.9734C74.7466 50.64 34.6666 50.64 34.6666 71.9734H74.7466ZM34.72 77.3334H74.72V82.6667H34.72V77.3334Z" fill="white" />
</svg>